<svg id="Layer_1" data-name="Layer 1" xmlns="http://www.w3.org/2000/svg" viewBox="0 0 32 32"><defs><style>.cls-1{fill:#0071bc;}.cls-2{fill:#fff;}</style></defs><title>Artboard 3</title><path class="cls-1" d="M31,16A15,15,0,0,1,16,31a15.47,15.47,0,0,1-3.21-.34A15,15,0,1,1,31,16Z"/><path class="cls-2" d="M22.12,9.06c-1.51-1.27-3.83-1.94-7-1.94a37.8,37.8,0,0,0-6.62.49V29a14.9,14.9,0,0,0,4.29,1.67V22.08a11.93,11.93,0,0,0,2.12.14c3.06,0,5.77-.81,7.49-2.53a7.2,7.2,0,0,0,2.05-5.39A6.68,6.68,0,0,0,22.12,9.06Zm-7.21,9.78a8.9,8.9,0,0,1-2.12-.17v-8a12.48,12.48,0,0,1,2.5-.21c3,0,4.83,1.41,4.83,4.05S18.14,18.84,14.91,18.84Z"/></svg>